<svg xmlns="http://www.w3.org/2000/svg" version="1.1" xmlns:xlink="http://www.w3.org/1999/xlink" xmlns:svgjs="http://svgjs.dev/svgjs" width="1000" height="1000" viewBox="0 0 1000 1000"><rect width="1000" height="1000" fill="#ffb500"></rect><g transform="matrix(0.7,0,0,0.7,150.61875409836063,146.08680161943317)"><svg viewBox="0 0 244 247" data-background-color="#ffb500" preserveAspectRatio="xMidYMid meet" height="1012" width="1000" xmlns="http://www.w3.org/2000/svg" xmlns:xlink="http://www.w3.org/1999/xlink"><g id="tight-bounds" transform="matrix(1,0,0,1,-0.21567999999999188,-0.09999999999999432)"><svg viewBox="0 0 244.43135999999998 247.2" height="247.2" width="244.43135999999998"><g><svg></svg></g><g><svg viewBox="0 0 244.43135999999998 247.2" height="247.2" width="244.43135999999998"><g transform="matrix(1,0,0,1,0,100.73079155346335)"><svg viewBox="0 0 244.43135999999998 45.73841689307331" height="45.73841689307331" width="244.43135999999998"><g><svg viewBox="0 0 244.43135999999998 45.73841689307331" height="45.73841689307331" width="244.43135999999998"><g><svg viewBox="0 0 244.43135999999998 45.73841689307331" height="45.73841689307331" width="244.43135999999998"><g><svg viewBox="0 0 244.43135999999998 45.73841689307331" height="45.73841689307331" width="244.43135999999998"><g id="textblocktransform"><svg viewBox="0 0 244.43135999999998 45.73841689307331" height="45.73841689307331" width="244.43135999999998" id="textblock"><g><svg viewBox="0 0 244.43135999999998 45.73841689307331" height="45.73841689307331" width="244.43135999999998"><g transform="matrix(1,0,0,1,0,0)"><svg width="244.43135999999998" viewBox="3.7 -37.3 297.37 55.65" height="45.73841689307331" data-palette-color="#000000"><path d="M23.65-2.85L23.65-2.85Q24.9-0.7 24.9 1.3L24.9 1.3Q24.9 1.75 24.83 2.13 24.75 2.5 24.65 2.9L24.65 2.9Q23.8 2.8 22.88 2.75 21.95 2.7 20.95 2.7L20.95 2.7Q19.75 2.7 18.53 2.78 17.3 2.85 15.8 3 14.3 3.15 12.45 3.4 10.6 3.65 8.15 4.05L8.15 4.05Q7 3.65 5.85 2.48 4.7 1.3 3.7-0.35L3.7-0.35Q4.2-1.45 4.95-3.08 5.7-4.7 6.7-7.03 7.7-9.35 8.93-12.48 10.15-15.6 11.55-19.7L11.55-19.7Q12.45-22.4 13.1-24.45 13.75-26.5 14.28-28.43 14.8-30.35 15.3-32.45 15.8-34.55 16.4-37.3L16.4-37.3Q18.4-36.9 19.88-35.83 21.35-34.75 22.7-32.75L22.7-32.75Q22.3-32.1 21.65-30.65 21-29.2 20.13-27.13 19.25-25.05 18.2-22.43 17.15-19.8 16-16.8L16-16.8Q14.9-13.85 13.85-11.25 12.8-8.65 11.98-6.55 11.15-4.45 10.65-2.95 10.15-1.45 10.15-0.7L10.15-0.7Q10.95-0.75 11.6-0.8 12.25-0.85 12.95-0.98 13.65-1.1 14.48-1.28 15.3-1.45 16.45-1.75L16.45-1.75Q17.45-2 18.3-2.18 19.15-2.35 19.98-2.48 20.8-2.6 21.68-2.68 22.55-2.75 23.65-2.85ZM27.85-3.35L27.85-3.35Q27.85-3.8 27.92-4.48 28-5.15 28.2-6.28 28.4-7.4 28.72-9 29.05-10.6 29.55-12.85L29.55-12.85Q29.65-13.35 30-14.45 30.35-15.55 30.92-16.78 31.5-18 32.32-19.15 33.15-20.3 34.3-20.85L34.3-20.85Q35.15-20.65 36.55-19.83 37.95-19 38.95-17.55L38.95-17.55Q37.8-16.25 37.02-14.95 36.25-13.65 35.62-12.25 35-10.85 34.47-9.35 33.95-7.85 33.3-6.2L33.3-6.2Q32.75-4.8 32.3-3.33 31.85-1.85 31.8-0.75L31.8-0.75Q31.8 0.15 31.77 0.53 31.75 0.9 31.5 0.9L31.5 0.9Q31.3 0.9 30.7 0.65 30.1 0.4 29.47-0.13 28.85-0.65 28.35-1.45 27.85-2.25 27.85-3.35ZM37.4-25.05L37.4-25.05Q37.4-25.35 37.55-25.95L37.55-25.95Q37.3-26.2 37.12-26.7 36.95-27.2 36.95-27.6L36.95-27.6Q36.95-28.05 37.07-28.83 37.2-29.6 37.4-30.5 37.6-31.4 37.9-32.38 38.2-33.35 38.5-34.15L38.5-34.15Q39.1-34.15 39.97-33.83 40.85-33.5 41.75-32.98 42.65-32.45 43.4-31.83 44.15-31.2 44.55-30.65L44.55-30.65Q44-30.1 43.1-29.13 42.2-28.15 41.35-27.08 40.5-26 39.8-25.05 39.1-24.1 38.9-23.7L38.9-23.7Q38.3-23.8 37.85-24.23 37.4-24.65 37.4-25.05ZM47.7-24.25L47.7-24.25Q49-23.85 50.15-22.48 51.3-21.1 51.85-19.45L51.85-19.45Q51.3-18.1 50.15-16.2 49-14.3 47.85-12.33 46.7-10.35 45.77-8.58 44.85-6.8 44.7-5.65L44.7-5.65Q45.5-6.5 46.47-7.63 47.45-8.75 48.37-9.88 49.3-11 50.1-11.93 50.9-12.85 51.35-13.3L51.35-13.3Q52.3-14.3 53.6-15.63 54.9-16.95 56.32-18.13 57.75-19.3 59.2-20.13 60.65-20.95 61.85-20.95L61.85-20.95Q63.15-20.95 64.02-20.08 64.9-19.2 65.4-18.25L65.4-18.25Q65.4-18.15 65.02-17.98 64.65-17.8 63.95-17L63.95-17Q63.25-16.1 62.37-14.53 61.5-12.95 60.67-11.13 59.85-9.3 59.3-7.4 58.75-5.5 58.75-3.95L58.75-3.95Q58.75-2.7 59.07-2.35 59.4-2 60-2L60-2Q60.55-2 61.15-2.25 61.75-2.5 62.1-2.5L62.1-2.5Q62.3-2.4 62.42-2.08 62.55-1.75 62.55-1.5L62.55-1.5Q62.15-1.15 61.6-0.8 61.05-0.45 60.45-0.15 59.85 0.15 59.27 0.35 58.7 0.55 58.25 0.55L58.25 0.55Q56.8 0.55 55.87 0.13 54.95-0.3 54.42-1 53.9-1.7 53.7-2.68 53.5-3.65 53.5-4.75L53.5-4.75Q53.5-5.35 53.6-6.1 53.7-6.85 54-7.88 54.3-8.9 54.85-10.33 55.4-11.75 56.25-13.75L56.25-13.75Q56.15-13.75 54.9-13.05 53.65-12.35 52.2-10.9L52.2-10.9Q49.85-8.65 47.97-6.45 46.1-4.25 44.15-1.55L44.15-1.55Q43.05 0 42.22 1.07 41.4 2.15 40.8 2.5L40.8 2.5Q39.75 1.9 39.25 0.83 38.75-0.25 38.5-1.4L38.5-1.4Q38.5-2.35 38.77-3.8 39.05-5.25 39.52-7.03 40-8.8 40.7-10.75 41.4-12.7 42.25-14.65L42.25-14.65Q44.15-19.05 45.72-21.55 47.3-24.05 47.7-24.25ZM56.49 14.9L56.49 14.9Q56.49 14.6 56.69 14.35 56.89 14.1 57.14 13.85L57.14 13.85Q57.74 14.4 58.17 14.7 58.59 15 58.97 15.2 59.34 15.4 59.74 15.45 60.14 15.5 60.69 15.5L60.69 15.5Q63.29 15.5 65.64 14.13 67.99 12.75 70.07 10.15 72.14 7.55 73.84 3.8 75.54 0.05 76.84-4.7L76.84-4.7Q76.24-4.1 75.37-3.38 74.49-2.65 73.54-2 72.59-1.35 71.67-0.8 70.74-0.25 70.09 0L70.09 0Q69.24-0.15 68.52-0.73 67.79-1.3 67.24-2.15 66.69-3 66.39-4.08 66.09-5.15 66.09-6.35L66.09-6.35Q66.09-8.3 66.82-10.35 67.54-12.4 68.74-14.38 69.94-16.35 71.57-18.1 73.19-19.85 75.02-21.15 76.84-22.45 78.72-23.23 80.59-24 82.39-24L82.39-24Q84.14-24 85.02-23.28 85.89-22.55 86.29-20.8L86.29-20.8Q85.74-21.1 84.89-21.1L84.89-21.1Q83.69-21.1 82.12-20.15 80.54-19.2 78.92-17.68 77.29-16.15 75.69-14.18 74.09-12.2 72.87-10.15 71.64-8.1 70.87-6.15 70.09-4.2 70.09-2.65L70.09-2.65Q70.09-2.3 70.14-2.23 70.19-2.15 70.29-2.15L70.29-2.15Q70.74-2.15 71.52-2.65 72.29-3.15 73.27-3.93 74.24-4.7 75.29-5.73 76.34-6.75 77.29-7.8L77.29-7.8Q79.44-10.2 81.22-13.18 82.99-16.15 84.04-18.95L84.04-18.95Q85.39-18.85 86.44-18.5 87.49-18.15 87.89-17.75L87.89-17.75Q86.19-13.85 85.17-11.2 84.14-8.55 83.39-6.5L83.39-6.5Q82.04-2.9 80.87 0.08 79.69 3.05 78.47 5.58 77.24 8.1 75.82 10.28 74.39 12.45 72.59 14.45L72.59 14.45Q71.74 15.4 70.67 16.13 69.59 16.85 68.47 17.35 67.34 17.85 66.27 18.1 65.19 18.35 64.29 18.35L64.29 18.35Q63.09 18.35 61.84 18.07 60.59 17.8 59.52 17.32 58.44 16.85 57.64 16.23 56.84 15.6 56.49 14.9ZM102.69-1.1L102.69-1.1Q101.74-1.9 101.42-3.1 101.09-4.3 101.09-5.15L101.09-5.15Q101.09-6.2 101.34-6.95L101.34-6.95Q101.14-6.95 100.44-6.15 99.74-5.35 98.92-4.25 98.09-3.15 97.29-2.1 96.49-1.05 96.09-0.55L96.09-0.55Q95.44 0.15 94.87 0.55 94.29 0.95 93.94 1L93.94 1Q93.14 0.95 92.27 0.68 91.39 0.4 90.62-0.1 89.84-0.6 89.27-1.3 88.69-2 88.49-2.9L88.49-2.9Q88.49-4.3 88.57-5.2 88.64-6.1 88.89-7.15L88.89-7.15Q89.34-9.05 90.22-11.45 91.09-13.85 92.24-16.18 93.39-18.5 94.82-20.53 96.24-22.55 97.84-23.7L97.84-23.7Q98.29-23.7 98.89-23.63 99.49-23.55 100.12-23.35 100.74-23.15 101.32-22.88 101.89-22.6 102.29-22.15L102.29-22.15Q101.84-21.65 100.02-18.8 98.19-15.95 95.94-10.6L95.94-10.6Q95.69-10.05 95.34-9 94.99-7.95 94.64-6.8 94.29-5.65 94.07-4.55 93.84-3.45 93.84-2.8L93.84-2.8Q93.84-2.4 93.97-2.2 94.09-2 94.19-1.9L94.19-1.9Q94.94-2.2 96.09-3.55 97.24-4.9 99.29-7.7L99.29-7.7Q99.79-8.4 100.47-9.3 101.14-10.2 101.84-11.23 102.54-12.25 103.17-13.35 103.79-14.45 104.19-15.55L104.19-15.55Q104.39-16.15 104.72-16.98 105.04-17.8 105.52-18.7 105.99-19.6 106.62-20.53 107.24-21.45 108.09-22.25L108.09-22.25Q108.74-22.25 109.49-22.1 110.24-21.95 110.92-21.73 111.59-21.5 112.09-21.23 112.59-20.95 112.84-20.65L112.84-20.65Q111.94-18.45 110.84-16.3 109.74-14.15 108.79-12.08 107.84-10 107.19-7.95 106.54-5.9 106.54-3.95L106.54-3.95Q106.54-2.9 106.72-2.13 106.89-1.35 107.09-0.83 107.29-0.3 107.47 0.05 107.64 0.4 107.64 0.65L107.64 0.65Q107.64 0.7 107.54 0.8L107.54 0.8Q107.49 0.85 107.44 0.85L107.44 0.85Q107.09 0.85 106.54 0.7 105.99 0.55 105.32 0.28 104.64 0 103.97-0.35 103.29-0.7 102.69-1.1ZM130.79-20.2L130.79-20.2Q131.29-20.2 131.96-20.03 132.64-19.85 133.19-19.58 133.74-19.3 134.11-19 134.49-18.7 134.49-18.45L134.49-18.45Q133.49-16.35 132.64-14.23 131.79-12.1 131.19-10.15 130.59-8.2 130.26-6.5 129.94-4.8 129.94-3.55L129.94-3.55Q129.94-2.15 130.24-1.23 130.54-0.3 131.24 0.1L131.24 0.1Q130.64 0.5 129.69 0.75 128.74 1 127.99 1L127.99 1Q125.29 1 125.29-2.7L125.29-2.7Q125.29-5.55 127.19-10.5L127.19-10.5Q126.19-8.2 124.89-6.18 123.59-4.15 122.24-2.6 120.89-1.05 119.51-0.08 118.14 0.9 116.99 1.1L116.99 1.1Q115.14 1 113.99-0.68 112.84-2.35 112.84-4.95L112.84-4.95Q112.84-7.75 114.04-10.85 115.24-13.95 117.11-16.6 118.99-19.25 121.19-21.03 123.39-22.8 125.44-22.9L125.44-22.9Q125.94-22.75 126.56-22.3 127.19-21.85 127.76-21.25 128.34-20.65 128.74-20.03 129.14-19.4 129.19-18.95L129.19-18.95Q127.19-18.65 125.06-17 122.94-15.35 121.21-13.03 119.49-10.7 118.39-8.05 117.29-5.4 117.29-3.1L117.29-3.1Q117.29-2.15 117.99-1.9L117.99-1.9Q119.44-2.2 121.34-4.38 123.24-6.55 125.94-11.1L125.94-11.1Q126.44-12 127.06-13.1 127.69-14.2 128.34-15.4 128.99-16.6 129.61-17.82 130.24-19.05 130.79-20.2ZM138.13-9.8L138.13-9.8Q138.13-13.3 138.96-16.68 139.78-20.05 141.28-23.08 142.78-26.1 144.86-28.63 146.94-31.15 149.41-33 151.88-34.85 154.69-35.88 157.49-36.9 160.44-36.9L160.44-36.9Q163.88-36.9 165.81-35.45 167.74-34 167.74-31.4L167.74-31.4Q167.74-30.4 167.46-29.35 167.19-28.3 166.66-27.28 166.13-26.25 165.44-25.3 164.74-24.35 163.88-23.65L163.88-23.65Q162.59-23.85 161.63-24.83 160.69-25.8 160.44-27.1L160.44-27.1Q162.19-28.55 163.21-30.13 164.24-31.7 164.24-33L164.24-33Q164.24-35.2 161.49-35.2L161.49-35.2Q160.34-35.2 159.11-34.73 157.88-34.25 156.63-33.4 155.38-32.55 154.21-31.35 153.03-30.15 152.03-28.7L152.03-28.7Q145.09-18.7 145.09-8.25L145.09-8.25Q145.09-4.55 146.23-2.3 147.38-0.05 149.28 0.35L149.28 0.35Q151.44-0.15 154.74-2.4 158.03-4.65 161.94-8.25L161.94-8.25Q162.44-7.75 162.53-7.2L162.53-7.2Q161.09-5.3 159.53-3.55 157.99-1.8 156.46-0.35 154.94 1.1 153.46 2.2 151.99 3.3 150.74 3.9L150.74 3.9Q144.53 3.8 141.34 0.35 138.13-3.1 138.13-9.8ZM171.73 1.75L171.73 1.75Q168.88 1.45 167.18-0.75 165.48-2.95 165.48-6.35L165.48-6.35Q165.48-8.35 166.08-10.5 166.68-12.65 167.78-14.68 168.88-16.7 170.38-18.5 171.88-20.3 173.63-21.6L173.63-21.6Q176.38-23.65 178.78-23.65L178.78-23.65Q180.38-22.8 181.93-20.1L181.93-20.1Q182.18-20.1 182.38-20.13 182.58-20.15 182.83-20.15L182.83-20.15Q185.48-20.15 185.48-15.45L185.48-15.45Q185.48-12.3 184.46-9.47 183.43-6.65 181.61-4.35 179.78-2.05 177.26-0.48 174.73 1.1 171.73 1.75ZM174.28-14L174.28-14Q173.43-12.85 172.68-11.5 171.93-10.15 171.38-8.78 170.83-7.4 170.53-6.13 170.23-4.85 170.23-3.85L170.23-3.85Q170.23-2.65 170.63-1.55 171.03-0.45 171.53-0.3L171.53-0.3Q173.78-0.8 175.66-2.18 177.53-3.55 178.91-5.6 180.28-7.65 181.06-10.25 181.83-12.85 181.83-15.8L181.83-15.8Q181.83-17.1 181.68-17.85 181.53-18.6 181.18-19.15L181.18-19.15Q178.98-18.5 177.26-17.05 175.53-15.6 174.28-14ZM195.98-24.25L195.98-24.25Q197.28-23.85 198.43-22.48 199.58-21.1 200.13-19.45L200.13-19.45Q199.58-18.1 198.43-16.2 197.28-14.3 196.13-12.33 194.98-10.35 194.06-8.58 193.13-6.8 192.98-5.65L192.98-5.65Q193.78-6.5 194.76-7.63 195.73-8.75 196.66-9.88 197.58-11 198.38-11.93 199.18-12.85 199.63-13.3L199.63-13.3Q200.58-14.3 201.88-15.63 203.18-16.95 204.61-18.13 206.03-19.3 207.48-20.13 208.93-20.95 210.13-20.95L210.13-20.95Q211.43-20.95 212.31-20.08 213.18-19.2 213.68-18.25L213.68-18.25Q213.68-18.15 213.31-17.98 212.93-17.8 212.23-17L212.23-17Q211.53-16.1 210.66-14.53 209.78-12.95 208.96-11.13 208.13-9.3 207.58-7.4 207.03-5.5 207.03-3.95L207.03-3.95Q207.03-2.7 207.36-2.35 207.68-2 208.28-2L208.28-2Q208.83-2 209.43-2.25 210.03-2.5 210.38-2.5L210.38-2.5Q210.58-2.4 210.71-2.08 210.83-1.75 210.83-1.5L210.83-1.5Q210.43-1.15 209.88-0.8 209.33-0.45 208.73-0.15 208.13 0.15 207.56 0.35 206.98 0.55 206.53 0.55L206.53 0.55Q205.08 0.55 204.16 0.13 203.23-0.3 202.71-1 202.18-1.7 201.98-2.68 201.78-3.65 201.78-4.75L201.78-4.75Q201.78-5.35 201.88-6.1 201.98-6.85 202.28-7.88 202.58-8.9 203.13-10.33 203.68-11.75 204.53-13.75L204.53-13.75Q204.43-13.75 203.18-13.05 201.93-12.35 200.48-10.9L200.48-10.9Q198.13-8.65 196.26-6.45 194.38-4.25 192.43-1.55L192.43-1.55Q191.33 0 190.51 1.07 189.68 2.15 189.08 2.5L189.08 2.5Q188.03 1.9 187.53 0.83 187.03-0.25 186.78-1.4L186.78-1.4Q186.78-2.35 187.06-3.8 187.33-5.25 187.81-7.03 188.28-8.8 188.98-10.75 189.68-12.7 190.53-14.65L190.53-14.65Q192.43-19.05 194.01-21.55 195.58-24.05 195.98-24.25ZM222.98-24.25L222.98-24.25Q224.28-23.85 225.43-22.48 226.58-21.1 227.13-19.45L227.13-19.45Q226.58-18.1 225.43-16.2 224.28-14.3 223.13-12.33 221.98-10.35 221.05-8.58 220.13-6.8 219.98-5.65L219.98-5.65Q220.78-6.5 221.75-7.63 222.73-8.75 223.65-9.88 224.58-11 225.38-11.93 226.18-12.85 226.63-13.3L226.63-13.3Q227.58-14.3 228.88-15.63 230.18-16.95 231.6-18.13 233.03-19.3 234.48-20.13 235.93-20.95 237.13-20.95L237.13-20.95Q238.43-20.95 239.3-20.08 240.18-19.2 240.68-18.25L240.68-18.25Q240.68-18.15 240.3-17.98 239.93-17.8 239.23-17L239.23-17Q238.53-16.1 237.65-14.53 236.78-12.95 235.95-11.13 235.13-9.3 234.58-7.4 234.03-5.5 234.03-3.95L234.03-3.95Q234.03-2.7 234.35-2.35 234.68-2 235.28-2L235.28-2Q235.83-2 236.43-2.25 237.03-2.5 237.38-2.5L237.38-2.5Q237.58-2.4 237.7-2.08 237.83-1.75 237.83-1.5L237.83-1.5Q237.43-1.15 236.88-0.8 236.33-0.45 235.73-0.15 235.13 0.15 234.55 0.35 233.98 0.55 233.53 0.55L233.53 0.55Q232.08 0.55 231.15 0.13 230.23-0.3 229.7-1 229.18-1.7 228.98-2.68 228.78-3.65 228.78-4.75L228.78-4.75Q228.78-5.35 228.88-6.1 228.98-6.85 229.28-7.88 229.58-8.9 230.13-10.33 230.68-11.75 231.53-13.75L231.53-13.75Q231.43-13.75 230.18-13.05 228.93-12.35 227.48-10.9L227.48-10.9Q225.13-8.65 223.25-6.45 221.38-4.25 219.43-1.55L219.43-1.55Q218.33 0 217.5 1.07 216.68 2.15 216.08 2.5L216.08 2.5Q215.03 1.9 214.53 0.83 214.03-0.25 213.78-1.4L213.78-1.4Q213.78-2.35 214.05-3.8 214.33-5.25 214.8-7.03 215.28-8.8 215.98-10.75 216.68-12.7 217.53-14.65L217.53-14.65Q219.43-19.05 221-21.55 222.58-24.05 222.98-24.25ZM259.78-20.7L259.78-20.7Q259.58-17.6 258.68-15.38 257.78-13.15 256.1-11.48 254.43-9.8 252.03-8.45 249.63-7.1 246.43-5.85L246.43-5.85Q246.43-5.55 246.4-5.23 246.38-4.9 246.38-4.55L246.38-4.55Q246.38-3.9 246.48-3.2 246.58-2.5 246.83-1.9 247.08-1.3 247.53-0.93 247.98-0.55 248.68-0.55L248.68-0.55Q250.03-0.55 251.33-1.15 252.63-1.75 253.8-2.63 254.98-3.5 256-4.53 257.03-5.55 257.83-6.4L257.83-6.4Q258.33-5.95 258.68-5.55L258.68-5.55Q256.43-2.55 253.75-0.58 251.08 1.4 248.68 1.95L248.68 1.95Q245.23 1.55 243.3-0.58 241.38-2.7 241.38-5.7L241.38-5.7Q241.38-7.75 241.95-9.88 242.53-12 243.55-13.98 244.58-15.95 245.95-17.7 247.33-19.45 248.9-20.75 250.48-22.05 252.15-22.8 253.83-23.55 255.48-23.55L255.48-23.55Q257.78-23.25 259.78-20.7ZM256.33-19.05L256.33-19.05Q254.98-18.85 253.53-17.95 252.08-17.05 250.8-15.55 249.53-14.05 248.48-12.05 247.43-10.05 246.83-7.75L246.83-7.75Q250.83-9.75 253.48-12.68 256.13-15.6 256.33-19.05ZM262.37-8.8L262.37-8.8Q262.37-11.65 263.55-14.33 264.72-17 266.65-19.07 268.57-21.15 271.05-22.43 273.52-23.7 276.17-23.7L276.17-23.7Q278.77-23.7 280.17-22.4 281.57-21.1 281.57-18.7L281.57-18.7Q281.57-17.55 281.25-16.48 280.92-15.4 280.4-14.55 279.87-13.7 279.17-13.18 278.47-12.65 277.77-12.65L277.77-12.65Q277.17-12.65 276.55-13.03 275.92-13.4 275.52-14L275.52-14Q278.87-17.05 278.87-19.55L278.87-19.55Q278.87-21 277.72-21L277.72-21Q276.72-21 275.22-20.05 273.72-19.1 272.32-17.55L272.32-17.55Q270.17-15.15 269.05-12.23 267.92-9.3 267.92-6.1L267.92-6.1Q267.92-2.05 269.72-1.25L269.72-1.25Q270.47-1.35 271.47-1.7 272.47-2.05 273.62-2.63 274.77-3.2 276-3.95 277.22-4.7 278.37-5.55L278.37-5.55Q278.57-5.4 278.72-5.1 278.87-4.8 278.87-4.55L278.87-4.55Q278.02-3.5 276.92-2.5 275.82-1.5 274.62-0.68 273.42 0.15 272.3 0.73 271.17 1.3 270.32 1.45L270.32 1.45Q268.67 1.3 267.22 0.43 265.77-0.45 264.7-1.85 263.62-3.25 263-5.05 262.37-6.85 262.37-8.8ZM288.67-19.15L285.82-19.15Q285.57-19.45 285.37-20.43 285.17-21.4 285.17-22.1L285.17-22.1Q286.47-22 287.67-21.93 288.87-21.85 289.87-21.8L289.87-21.8Q290.62-23.3 291.5-24.78 292.37-26.25 293.2-27.48 294.02-28.7 294.75-29.55 295.47-30.4 295.87-30.65L295.87-30.65Q296.37-30.65 297.15-30.48 297.92-30.3 298.72-30.03 299.52-29.75 300.17-29.45 300.82-29.15 301.07-28.85L301.07-28.85Q299.57-26.95 298.5-25.33 297.42-23.7 296.17-21.6L296.17-21.6Q297.17-21.6 298.2-21.65 299.22-21.7 300.27-21.8L300.27-21.8Q300.52-21.55 300.67-21.18 300.82-20.8 300.82-20.4L300.82-20.4Q298.37-19.5 294.87-19.4L294.87-19.4Q293.62-17 292.65-14.63 291.67-12.25 291-10.05 290.32-7.85 289.95-5.9 289.57-3.95 289.57-2.4L289.57-2.4Q289.57-0.2 291.22 0.05L291.22 0.05Q292.72-0.15 294.07-0.7 295.42-1.25 296.47-2.1L296.47-2.1Q296.77-1.65 296.82-1.35L296.82-1.35Q296.52-0.9 295.8-0.3 295.07 0.3 294.22 0.88 293.37 1.45 292.57 1.85 291.77 2.25 291.37 2.3L291.37 2.3Q290.12 2.25 288.87 1.75 287.62 1.25 286.6 0.5 285.57-0.25 284.92-1.18 284.27-2.1 284.27-3L284.27-3Q284.27-4.2 284.6-6.03 284.92-7.85 285.52-10 286.12-12.15 286.92-14.5 287.72-16.85 288.67-19.15L288.67-19.15Z" opacity="1" transform="matrix(1,0,0,1,0,0)" fill="#000000" class="wordmark-text-0" data-fill-palette-color="primary" id="text-0"></path></svg></g></svg></g></svg></g></svg></g><g></g></svg></g></svg></g></svg></g><path d="M0 94.731L0 1 244.431 1 244.431 94.731 240.307 94.731 240.307 5.125 4.125 5.125 4.125 94.731 0 94.731M0 152.469L0 246.2 244.431 246.2 244.431 152.469 240.307 152.469 240.307 242.075 4.125 242.075 4.125 152.469 0 152.469" fill="#000000" stroke="transparent" data-fill-palette-color="primary"></path></svg></g><defs></defs></svg><rect width="244.43135999999998" height="247.2" fill="none" stroke="none" visibility="hidden"></rect></g></svg></g></svg>